<?xml version="1.0" encoding="utf-8"?>
<!-- Generator: Adobe Illustrator 21.1.0, SVG Export Plug-In . SVG Version: 6.00 Build 0)  -->
<svg version="1.1" xmlns="http://www.w3.org/2000/svg" xmlns:xlink="http://www.w3.org/1999/xlink" x="0px" y="0px" viewBox="0 0 372 372" xml:space="preserve">
<style type="text/css">
	.st1{fill:#000000;}
</style>
<g>
	<g>
		<path class="st1" d="M184.8,202.2c-0.7,0-1.5,0-2.2-0.1c-14.1-1.2-24.6-13.7-23.4-27.8c1.2-14.1,13.7-24.6,27.8-23.4
			c14.1,1.2,24.6,13.7,23.4,27.8l0,0C209.3,192,198,202.2,184.8,202.2z M184.8,154.9c-5.1,0-9.9,1.8-13.9,5.1
			c-4.4,3.7-7.1,8.9-7.6,14.7c-1,11.9,7.8,22.3,19.7,23.3c11.9,1,22.3-7.8,23.3-19.7c1-11.9-7.8-22.3-19.7-23.3
			C186,154.9,185.4,154.9,184.8,154.9z"></path>
	</g>
	<g>
		<path class="st1" d="M95.6,123.4c-0.4,0-0.8,0-1.2-0.1c-3.7-0.3-7-2.1-9.4-4.9c-2.4-2.8-3.5-6.4-3.2-10.1c0.3-3.7,2.1-7,4.9-9.4
			c2.8-2.4,6.4-3.5,10.1-3.2c3.7,0.3,7,2.1,9.4,4.9c2.4,2.8,3.5,6.4,3.2,10.1l0,0c-0.3,3.7-2.1,7-4.9,9.4
			C102,122.3,98.9,123.4,95.6,123.4z M95.6,99.8c-2.3,0-4.5,0.8-6.3,2.3c-2,1.7-3.2,4-3.4,6.6c-0.2,2.6,0.6,5.1,2.3,7.1
			c1.7,2,4,3.2,6.6,3.4c2.6,0.2,5.1-0.6,7.1-2.3c2-1.7,3.2-4,3.4-6.6l0,0c0.2-2.6-0.6-5.1-2.3-7.1c-1.7-2-4-3.2-6.6-3.4
			C96.1,99.8,95.9,99.8,95.6,99.8z"></path>
	</g>
	<g>
		<path class="st1" d="M70.8,275.5c-0.4,0-0.8,0-1.2-0.1c-7.6-0.7-13.3-7.4-12.7-15c0.7-7.6,7.4-13.3,15-12.6c3.7,0.3,7,2.1,9.4,4.9
			c2.4,2.8,3.5,6.4,3.2,10.1l0,0C84,270.1,77.9,275.5,70.8,275.5z M70.7,251.9c-5,0-9.3,3.9-9.7,8.9c-0.5,5.4,3.5,10.1,8.9,10.6
			c5.4,0.5,10.1-3.5,10.6-8.9l0,0c0.2-2.6-0.6-5.1-2.3-7.1c-1.7-2-4-3.2-6.6-3.4C71.3,251.9,71,251.9,70.7,251.9z"></path>
	</g>
	<g>
		<path class="st1" d="M124.4,266.2c-0.4,0-0.8,0-1.2-0.1c-7.6-0.7-13.3-7.4-12.6-15c0.7-7.6,7.4-13.3,15-12.7
			c7.6,0.7,13.3,7.4,12.7,15C137.6,260.7,131.6,266.2,124.4,266.2z M124.4,242.6c-2.3,0-4.5,0.8-6.3,2.3c-2,1.7-3.2,4-3.4,6.6
			c-0.5,5.4,3.5,10.1,8.9,10.6c2.6,0.2,5.1-0.6,7.1-2.3c2-1.7,3.2-4,3.4-6.6c0.5-5.4-3.5-10.1-8.9-10.6
			C125,242.6,124.7,242.6,124.4,242.6z"></path>
	</g>
	<g>
		<path class="st1" d="M21.9,152.7c-0.4,0-0.8,0-1.2-0.1c-3.7-0.3-7-2.1-9.4-4.9c-2.4-2.8-3.5-6.4-3.2-10.1c0.3-3.7,2.1-7,4.9-9.4
			c2.8-2.4,6.4-3.5,10.1-3.2c7.6,0.7,13.3,7.4,12.7,15l0,0c-0.3,3.7-2.1,7-4.9,9.4C28.3,151.6,25.2,152.7,21.9,152.7z M21.9,129.1
			c-2.3,0-4.5,0.8-6.3,2.3c-2,1.7-3.2,4-3.4,6.6c-0.2,2.6,0.6,5.1,2.3,7.1c1.7,2,4,3.2,6.6,3.4c2.6,0.2,5.1-0.6,7.1-2.3
			s3.2-4,3.4-6.6c0.2-2.6-0.6-5.1-2.3-7.1c-1.7-2-4-3.2-6.6-3.4C22.5,129.1,22.2,129.1,21.9,129.1z"></path>
	</g>
	<g>
		<path class="st1" d="M338,215.3c-0.7,0-1.5,0-2.2-0.1c-14.1-1.2-24.6-13.7-23.4-27.8c0.6-6.8,3.8-13,9-17.5
			c5.3-4.4,11.9-6.5,18.7-6c14.1,1.2,24.6,13.7,23.4,27.8l0,0c-0.6,6.8-3.8,13-9,17.5C349.8,213.1,344,215.3,338,215.3z M337.9,168
			c-5.1,0-9.9,1.8-13.9,5.1c-4.4,3.7-7.1,8.9-7.6,14.7c-1,11.9,7.8,22.3,19.7,23.3c5.7,0.5,11.3-1.3,15.7-5
			c4.4-3.7,7.1-8.9,7.6-14.7l0,0c1-11.9-7.8-22.3-19.7-23.3C339.1,168,338.5,168,337.9,168z"></path>
	</g>
	<g>
		<path class="st1" d="M296.9,140.6c-0.7,0-1.5,0-2.2-0.1c-14.1-1.2-24.6-13.7-23.4-27.8S284.9,88,299,89.2
			c14.1,1.2,24.6,13.7,23.4,27.8l0,0C321.3,130.4,310.1,140.6,296.9,140.6z M296.8,93.3c-11.1,0-20.5,8.5-21.5,19.8
			c-1,11.9,7.8,22.3,19.7,23.3c11.9,1,22.3-7.8,23.3-19.7l0,0c1-11.9-7.8-22.3-19.7-23.3C298.1,93.3,297.4,93.3,296.8,93.3z"></path>
	</g>
	<g>
		<path class="st1" d="M296.6,282.9c-0.7,0-1.5,0-2.2-0.1c-14.1-1.2-24.6-13.7-23.4-27.8s13.7-24.6,27.8-23.4
			c14.1,1.2,24.6,13.7,23.4,27.8l0,0C321,272.8,309.8,282.9,296.6,282.9z M296.5,235.6c-5.1,0-9.9,1.8-13.9,5.1
			c-4.4,3.7-7.1,8.9-7.6,14.7c-1,11.9,7.8,22.3,19.7,23.3c11.9,1,22.3-7.8,23.3-19.7c1-11.9-7.8-22.3-19.7-23.3
			C297.8,235.6,297.2,235.6,296.5,235.6z"></path>
	</g>
	<g>
		<path class="st1" d="M41.5,196.7c-0.4,0-0.8,0-1.2-0.1c-7.6-0.7-13.3-7.4-12.7-15c0.7-7.6,7.4-13.3,15-12.6
			c7.6,0.7,13.3,7.4,12.7,15l0,0C54.7,191.2,48.6,196.7,41.5,196.7z M41.4,173c-5,0-9.3,3.9-9.7,8.9c-0.2,2.6,0.6,5.1,2.3,7.1
			c1.7,2,4,3.2,6.6,3.4c5.4,0.5,10.1-3.5,10.6-8.9l0,0c0.2-2.6-0.6-5.1-2.3-7.1c-1.7-2-4-3.2-6.6-3.4C42,173.1,41.7,173,41.4,173z"></path>
	</g>
	<g>
		<path class="st1" d="M26.7,236.2c-0.4,0-0.8,0-1.2-0.1c-3.7-0.3-7-2.1-9.4-4.9c-2.4-2.8-3.5-6.4-3.2-10.1c0.3-3.7,2.1-7,4.9-9.4
			c2.8-2.4,6.4-3.5,10.1-3.2c3.7,0.3,7,2.1,9.4,4.9c2.4,2.8,3.5,6.4,3.2,10.1C39.9,230.7,33.8,236.2,26.7,236.2z M26.6,212.5
			c-2.3,0-4.5,0.8-6.3,2.3c-2,1.7-3.2,4-3.4,6.6c-0.2,2.6,0.6,5.1,2.3,7.1c1.7,2,4,3.2,6.6,3.4c2.6,0.2,5.1-0.6,7.1-2.3
			c2-1.7,3.2-4,3.4-6.6l0,0c0.2-2.6-0.6-5.1-2.3-7.1c-1.7-2-4-3.2-6.6-3.4C27.2,212.6,26.9,212.5,26.6,212.5z"></path>
	</g>
	<g>
		<path class="st1" d="M204.6,162.8l-3.4-2.3c0.3-0.4,7.4-10.5,20-20.2c16.8-12.9,35.6-18.9,54.1-17.4l-0.4,4.1
			C232.6,123.3,204.9,162.4,204.6,162.8z"></path>
	</g>
	<g>
		<path class="st1" d="M273.9,251.3c-32.2-5.9-52.4-19.7-63.8-30.3c-12.4-11.6-17-21.6-17.2-22.1l3.8-1.7c0,0.1,4.6,9.9,16.4,20.9
			c10.9,10.2,30.4,23.5,61.5,29.1L273.9,251.3z"></path>
	</g>
	<g>
		<path class="st1" d="M313.8,189.5c-56.7-16.5-104.8-6.2-105.2-6.1l-0.9-4c0.5-0.1,49.6-10.6,107.3,6.1L313.8,189.5z"></path>
	</g>
	<g>
		<path class="st1" d="M166.5,161c-28.5-37-59.6-45.4-59.9-45.5l1-4c1.3,0.3,32.7,8.7,62.1,47L166.5,161z"></path>
	</g>
	<g>
		<path class="st1" d="M135.7,248.1l-2.3-3.4c0.3-0.2,33.7-23.6,35.9-48.8l4.1,0.4C171,223.4,137.1,247.2,135.7,248.1z"></path>
	</g>
	<g>
		<path class="st1" d="M79.8,253.3l-3.6-2c0.3-0.5,7.5-13.2,22-27.6c13.3-13.3,35.5-30.6,65.7-37.4l0.9,4
			C108.9,202.8,80.1,252.8,79.8,253.3z"></path>
	</g>
	<g>
		<path class="st1" d="M37.9,218.5l-1.8-3.7c0.6-0.3,64.6-30.9,126.7-31.5l0,4.1C101.7,188,38.6,218.2,37.9,218.5z"></path>
	</g>
	<g>
		<path class="st1" d="M54,181.6l-1.1-4c0.6-0.2,56.4-15.5,108.6-2.2l-1,4C109.4,166.3,54.6,181.4,54,181.6z"></path>
	</g>
	<g>
		<path class="st1" d="M162.1,168.2C105,125.7,34.9,141.7,34.2,141.9l-1-4c0.7-0.2,18.3-4.3,43.4-3c23.2,1.1,57.2,7.3,87.9,30.1
			L162.1,168.2z"></path>
	</g>
	<g>
		<path class="st1" d="M184.8,192.2c-0.5,0-0.9,0-1.4-0.1c-8.6-0.7-15-8.4-14.3-17c0.7-8.6,8.3-15.1,17-14.3c4.2,0.4,8,2.3,10.7,5.5
			c2.7,3.2,4,7.3,3.6,11.5l0,0c-0.4,4.2-2.3,8-5.5,10.7C192,190.9,188.5,192.2,184.8,192.2z M184.8,164.9c-5.9,0-11,4.6-11.5,10.6
			c-0.5,6.4,4.2,12,10.6,12.5c3.1,0.3,6.1-0.7,8.5-2.7c2.4-2,3.8-4.8,4.1-7.9c0.3-3.1-0.7-6.1-2.7-8.5c-2-2.4-4.8-3.8-7.9-4.1
			C185.4,164.9,185.1,164.9,184.8,164.9z"></path>
	</g>
</g>
</svg>